<svg xmlns="http://www.w3.org/2000/svg" width="59.564" height="60.912" viewBox="0 0 59.564 60.912">
  <path id="Icon_awesome-chevron-circle-down" data-name="Icon awesome-chevron-circle-down" d="M60.127,31.019c0,16.825-13.33,30.456-29.782,30.456S.562,47.843.562,31.019,13.892.563,30.345.563,60.127,14.194,60.127,31.019ZM32.386,45.007l16.272-16.64a2.982,2.982,0,0,0,0-4.163l-2.042-2.088a2.826,2.826,0,0,0-4.071,0l-12.2,12.477-12.2-12.477a2.826,2.826,0,0,0-4.071,0L12.031,24.2a2.982,2.982,0,0,0,0,4.163L28.3,45.007A2.84,2.84,0,0,0,32.386,45.007Z" transform="translate(-0.563 -0.563)" fill="#e28413"/>
</svg>
